<svg xmlns="http://www.w3.org/2000/svg" width="25" height="25" fill="none" viewBox="0 0 25 25">
  <g class="gear" clip-path="url(#a)">
    <path fill="#DDD" d="M24.214 8.135c.156.425.024.898-.313 1.2l-2.114 1.925a9.449 9.449 0 0 1 0 2.48l2.114 1.924c.337.303.47.776.313 1.201a12.113 12.113 0 0 1-.772 1.675l-.23.396a12.422 12.422 0 0 1-1.078 1.523c-.288.352-.767.469-1.197.332l-2.72-.864a9.398 9.398 0 0 1-2.148 1.24l-.61 2.788c-.098.444-.44.796-.889.87a12.617 12.617 0 0 1-4.15 0 1.103 1.103 0 0 1-.889-.87l-.61-2.788a9.398 9.398 0 0 1-2.149-1.24l-2.714.869c-.43.137-.909.015-1.197-.332a12.424 12.424 0 0 1-1.079-1.524l-.23-.395a12.1 12.1 0 0 1-.77-1.675 1.106 1.106 0 0 1 .312-1.201l2.114-1.924a9.447 9.447 0 0 1 0-2.485L1.094 9.336A1.106 1.106 0 0 1 .78 8.135c.215-.581.474-1.138.772-1.675l.23-.396c.321-.537.683-1.044 1.078-1.523.288-.352.767-.469 1.197-.332l2.72.864a9.396 9.396 0 0 1 2.148-1.24l.61-2.788c.098-.444.44-.796.889-.87A12.104 12.104 0 0 1 12.5 0c.708 0 1.401.059 2.075.17.45.074.791.426.889.87l.61 2.788a9.396 9.396 0 0 1 2.149 1.24l2.72-.864c.43-.137.908-.015 1.196.332.395.479.756.986 1.079 1.524l.23.395c.297.537.556 1.094.77 1.675l-.004.005ZM12.5 16.406a3.905 3.905 0 0 0 3.906-3.906A3.905 3.905 0 0 0 12.5 8.594 3.905 3.905 0 0 0 8.594 12.5a3.905 3.905 0 0 0 3.906 3.906Z" class="Vector"/>
  </g>
  <defs>
    <clipPath id="a" class="a">
      <path fill="#fff" d="M0 0h25v25H0z"/>
    </clipPath>
  </defs>
</svg>
