<svg xmlns="http://www.w3.org/2000/svg" fill="none" viewBox="0 0 128 128">
  <g class="JazwaStore" clip-path="url(#a)">
    <path fill="#FBFBFB" d="M86.172 58.333c9.158.328 11.608 2.062 12.456 8.812.406 3.226-.136 20.167-.277 23.761-.141 3.594-2.837 5.24-4.71 6.188-.566.285-1.81.501-3.431.65V102h-5v-4.013c-.987.016-1.998.017-3 .003V102h-5v-4.219c-2.333-.175-4.169-.455-4.847-.835-3.845-2.152-4.9-5.168-4.9-14.011v-5.758h12.254v3.934c0 5.203.09 5.347 3.384 5.347 3.648 0 3.578.168 3.578-8.433 0-9.193.699-8.334-7.01-8.615-11.624-.422-12.633-2.151-12.44-21.306l.095-9.402c-.195-5.966 4.664-7.771 9.886-8.347V26h5v4.082c1.011-.041 1.994-.026 3-.013V26h5v4.355c7 .645 8.443 3.853 8.443 14.99v5.537H86.4V46.83c0-5.148-.169-5.378-3.777-5.173-3.276.187-3.185-.055-3.185 8.497 0 8.729-.673 7.912 6.734 8.178Z" class="$"/>
    <path fill="#FBFBFB" fill-rule="evenodd" d="M49.879 57.266c0 30.025.049 28.26-.804 28.978-1.333 1.122-4.86.75-5.62-.594l-.334-.59-.042-6.257-.042-6.256H29.136v7.299c0 7.782.076 9.14.618 11.012 1.055 3.64 3.283 5.774 7.12 6.82l1.295.354 7.73.044c6.606.039 7.908.015 8.966-.167 4.836-.834 7.48-3.295 8.629-8.032.21-.864.23-3.23.268-30.412l.04-29.475H49.879v27.276ZM37.835 32.387l-5.52 1.396-.369.093v3.555l5.387 1.317c2.962.725 5.462 1.346 5.554 1.38.127.047.167-.277.167-1.349 0-1.584.113-1.428-1.243-1.698l-.774-.153.038-1.291.038-1.292.97-.186.97-.187v-1.456c0-.8-.014-1.45-.033-1.443-.018.006-2.352.598-5.186 1.314Zm1.338 3.293c0 .837-.012.87-.302.8-.165-.038-1.112-.24-2.103-.446l-1.803-.376 1.468-.303a49.906 49.906 0 0 0 1.87-.413c.849-.233.87-.215.87.738Zm-7.227 5.459v1.379l3.876.589c2.131.323 3.863.6 3.847.615-.015.015-1.654.336-3.641.715-1.987.378-3.719.72-3.848.758-.408.12-.346 2.83.067 2.926.166.039 1.861.37 3.767.736 1.906.367 3.486.687 3.511.712.025.025-.48.115-1.124.2-.642.084-2.358.317-3.812.516l-2.643.362v9.588h2l.037-1.983.038-1.982 3.524 2.05c2.405 1.397 3.66 2.052 3.948 2.06.233.008-1.444.485-3.725 1.062-2.282.577-4.525 1.15-4.985 1.274l-.837.225v3.53l5.387 1.318c2.962.724 5.462 1.345 5.554 1.379.127.047.167-.277.167-1.349 0-1.583.113-1.428-1.243-1.697l-.774-.154.038-1.291.038-1.292.97-.186.97-.187V53.41h-1.866l-.037 1.992-.037 1.993-3.637-2.104-3.636-2.103 3.703-.773c2.037-.425 4.11-.863 4.608-.974l.903-.202v-1.644c0-1.192-.046-1.661-.167-1.706-.093-.035-1.596-.325-3.342-.644-1.745-.32-3.16-.593-3.145-.608.016-.015 1.384-.278 3.04-.583a192.4 192.4 0 0 0 3.313-.63c.414-.1.477-3.32.066-3.441-.408-.121-10.53-2.224-10.705-2.224-.124 0-.168.366-.168 1.38Zm-2.944 13.669v1.399l1.16.809c1.448 1.01 1.383 1.024 1.38-.294l-.001-1.104-1.192-1.104c-1.462-1.354-1.347-1.38-1.347.294Zm10.17 9.912c0 .837-.011.87-.3.801-.166-.039-1.113-.24-2.104-.447l-1.803-.376 1.468-.302a50.761 50.761 0 0 0 1.87-.413c.849-.234.87-.216.87.737Z" class="Jazwa" clip-rule="evenodd"/>
    <g class="Ring">
      <path fill="#fff" d="M33.532 7.999C40.483 4.043 51.104.919 59.026.5c12.56-.664 22.258.958 32.237 5.39 17 7.55 30.777 23.575 35.612 41.423.2.736.481 1.724.625 2.195.588 1.92-.607 3.425-2.406 3.03-.884-.194-1.621-1.24-1.986-2.816-1.536-6.627-5.867-15.484-10.658-21.794-2.912-3.836-7.438-8.335-11.068-11.003-.405-.297-1.067-.787-1.472-1.087C90.359 8.758 76.676 4.285 64.58 4.29c-12.157.006-25.085 4.172-35.04 11.292-.834.597-1.65 1.175-1.813 1.285-2.144 1.449-7.043 6.038-9.008 8.44-7.845 9.584-12.3 19.313-14.154 30.905-2.7 16.892 2.743 35.195 14.488 48.713 6.935 7.981 16.054 13.973 26.724 17.559 3.288 1.104 4.21 2.14 3.399 3.816-.748 1.545-1.942 1.407-8.15-.941-4.833-1.828-11.746-5.634-14.921-8.214a34.49 34.49 0 0 0-.67-.504c-.583-.431-2.456-1.971-3.412-2.808C9.353 102.752 1.68 87.801.145 71.21-2.279 44.983 10.26 21.243 33.532 7.999Z"/>
    </g>
  </g>
</svg>
