<svg xmlns="http://www.w3.org/2000/svg" width="30" height="30" fill="none" viewBox="0 0 30 30">
  <g class="shop">
    <path fill="#DDD" d="M9.184 10.875 10.371 3H4.2L1.621 9.75a2.38 2.38 0 0 0-.121.75c0 1.656 1.725 3 3.856 3 1.966 0 3.59-1.146 3.829-2.625ZM15 13.5c2.13 0 3.857-1.344 3.857-3 0-.062-.005-.123-.008-.181L18.085 3h-6.17l-.765 7.313a3.909 3.909 0 0 0-.007.187c0 1.656 1.727 3 3.857 3Zm7.5 1.569V21h-15v-5.922a6.312 6.312 0 0 1-2.144.372 6.19 6.19 0 0 1-.856-.073V24.9c0 1.155.944 2.1 2.097 2.1H23.4c1.155 0 2.1-.947 2.1-2.1v-9.522c-.284.043-.57.068-.857.073-.73 0-1.457-.13-2.143-.382Zm5.88-5.319L25.799 3h-6.17l1.185 7.863c.231 1.485 1.855 2.637 3.83 2.637 2.13 0 3.856-1.344 3.856-3 0-.261-.042-.51-.12-.75Z" class="Vector"/>
  </g>
</svg>
