<svg xmlns="http://www.w3.org/2000/svg" width="32" height="32" fill="none" viewBox="0 0 32 32">
  <g class="tutorial-3" clip-path="url(#a)">
    <path fill="#fff" d="M32 16a16 16 0 1 1-32 0 16 16 0 0 1 32 0Zm-16.164.828c1.84 0 3.07 1.08 3.082 2.636.024 1.582-1.23 2.72-3.176 2.708-1.722-.012-2.964-.938-3.08-2.132h-2.454c.094 2.354 2.1 4.288 5.508 4.288 3.306 0 5.908-1.874 5.86-4.792-.046-2.556-2.062-3.692-3.468-3.832v-.14c1.194-.2 3.01-1.478 2.964-3.752-.06-2.354-2.086-4.148-5.274-4.124-3.35.012-5.18 1.968-5.25 4.24h2.496c.072-1.112 1.114-2.108 2.696-2.108 1.57 0 2.696.972 2.696 2.39.012 1.43-1.126 2.474-2.684 2.474h-1.676v2.144h1.76Z" class="Vector"/>
  </g>
  <defs>
    <clipPath id="a" class="a">
      <path fill="#fff" d="M0 0h32v32H0z"/>
    </clipPath>
  </defs>
</svg>
