<svg xmlns="http://www.w3.org/2000/svg" width="32" height="32" fill="none" viewBox="0 0 32 32">
  <g class="tutorial-2" clip-path="url(#a)">
    <path fill="#fff" d="M32 16a16 16 0 1 1-32 0 16 16 0 0 1 32 0Zm-18.708-3.52c0-1.382.986-2.612 2.672-2.612 1.512 0 2.626.984 2.626 2.472 0 1.394-.938 2.46-1.804 3.41l-5.942 6.586V24h10.688v-2.214h-6.996v-.154l3.948-4.44.192-.214c1.376-1.526 2.574-2.856 2.574-4.86 0-2.532-2.062-4.43-5.226-4.43-3.516 0-5.274 2.38-5.274 4.804v.13h2.542v-.142Z" class="Vector"/>
  </g>
  <defs>
    <clipPath id="a" class="a">
      <path fill="#fff" d="M0 0h32v32H0z"/>
    </clipPath>
  </defs>
</svg>
