<svg xmlns="http://www.w3.org/2000/svg" width="335" height="251" fill="none" viewBox="0 0 335 251">
  <g class="tutorial" clip-path="url(#a)">
    <path fill="#F0F0F0" d="M224.761 63.657c-4.313-23.045 2.477-49.263 21.347-63.212a107.908 107.908 0 0 0 22.552 70.658c6.058 7.752 13.603 15.745 13.369 25.574-.146 6.116-3.459 11.814-7.824 16.107-4.366 4.292-9.744 7.387-15.057 10.434l-.827 1.284c-15.576-17.542-29.248-37.8-33.56-60.845Z" class="Vector"/>
    <path fill="#9575CD" d="M246.452.797a92.197 92.197 0 0 0-6.104 56.476c.873 4.064 2.113 8.112 4.217 11.723a22.824 22.824 0 0 0 8.627 8.356c3.293 1.9 6.882 3.463 9.655 6.129 2.923 2.81 4.225 6.646 4.117 10.653-.133 4.903-2.023 9.467-4.025 13.865-2.224 4.883-4.612 9.92-4.467 15.411.017.665-1.018.653-1.035-.011-.251-9.552 6.665-17.224 8.206-26.39.72-4.276.152-8.796-2.859-12.11-2.634-2.9-6.333-4.514-9.684-6.41-3.519-1.99-6.514-4.448-8.741-7.856-2.277-3.486-3.679-7.494-4.652-11.518a89.447 89.447 0 0 1-2.033-27.922 93.834 93.834 0 0 1 7.89-30.927c.271-.605 1.158-.07.888.531Z" class="Vector"/>
    <path fill="#9575CD" d="M238.713 51.23a13.888 13.888 0 0 1-9.192-2.657 13.847 13.847 0 0 1-5.281-7.967c-.151-.648.849-.913 1-.264a12.824 12.824 0 0 0 4.918 7.415 12.857 12.857 0 0 0 8.565 2.44c.664-.05.65.984-.01 1.033Zm12.682 25.378a26.674 26.674 0 0 0 6.702-18.27c-.015-.665 1.02-.653 1.035.011a27.743 27.743 0 0 1-7.013 18.998c-.443.497-1.165-.244-.724-.739Zm-11.664-55.456a7.864 7.864 0 0 0 6.975-2.615c.437-.503 1.158.239.724.738a8.793 8.793 0 0 1-7.71 2.91.534.534 0 0 1-.512-.522.518.518 0 0 1 .523-.51Z" class="Vector"/>
    <path fill="#F0F0F0" d="M323.278 19.507a75.88 75.88 0 0 0-.789.974 103.267 103.267 0 0 0-9.465 13.829c-.22.372-.438.753-.647 1.13a108.748 108.748 0 0 0-12.721 38.012 105.478 105.478 0 0 0-.97 16.033c.116 7.403.832 15.422-1.44 22.231-.23.713-.503 1.412-.818 2.091l-36.474 11.603c-.096-.015-.19-.022-.286-.037l-1.435.53c-.024-.276-.043-.563-.066-.839-.015-.16-.021-.323-.035-.483a5.461 5.461 0 0 0-.026-.312 1.283 1.283 0 0 1-.005-.1c-.012-.096-.014-.188-.024-.276-.108-1.604-.208-3.21-.292-4.822-.002-.008-.002-.008.003-.019-.626-12.276-.231-24.711 2.042-36.692.068-.36.134-.729.219-1.095a100.72 100.72 0 0 1 4.467-15.845 89.03 89.03 0 0 1 3.602-8.276A74.15 74.15 0 0 1 281.6 38.266c10.881-11.058 25.183-18.518 40.507-18.753a55 55 0 0 1 1.171-.006Z" class="Vector"/>
    <path fill="#9575CD" d="M323.344 19.995a92.378 92.378 0 0 0-38.927 41.423c-1.754 3.77-3.205 7.748-3.703 11.895a22.77 22.77 0 0 0 1.85 11.858c1.484 3.497 3.407 6.902 4.014 10.698.639 4.002-.634 7.847-3.137 10.981-3.063 3.835-7.323 6.343-11.574 8.65-4.72 2.563-9.664 5.149-12.859 9.62-.387.541-1.206-.09-.82-.631 5.56-7.778 15.708-9.745 22.465-16.137 3.153-2.983 5.425-6.932 5.02-11.39-.355-3.897-2.335-7.41-3.868-10.938-1.61-3.704-2.519-7.467-2.242-11.527.284-4.153 1.581-8.195 3.231-11.994a89.576 89.576 0 0 1 15.212-23.516 94.077 94.077 0 0 1 24.949-19.95c.581-.32.967.64.389.958Z" class="Vector"/>
    <path fill="#9575CD" d="M286.754 55.61a13.851 13.851 0 0 1-5.736-7.647 13.829 13.829 0 0 1 .587-9.536c.269-.608 1.228-.218.958.39a12.807 12.807 0 0 0-.545 8.877 12.826 12.826 0 0 0 5.368 7.098c.56.359-.075 1.175-.632.818Zm-5.176 27.887a26.739 26.739 0 0 0 16.367-10.558c.389-.54 1.209.091.82.63a27.815 27.815 0 0 1-17.054 10.953c-.654.131-.783-.894-.133-1.025Zm24.125-51.29a7.858 7.858 0 0 0 7.147 2.105c.652-.139.781.887.133 1.025a8.816 8.816 0 0 1-7.911-2.312.536.536 0 0 1-.094-.725.519.519 0 0 1 .725-.093Z" class="Vector"/>
    <path fill="#F0F0F0" d="M88.9 36.127c-2.016-1.42-4.22-2.902-6.687-2.843-5.969.144-9.187 8.88-15.15 8.574-3.802-.196-6.327-4.053-9.867-5.452-4.61-1.82-10.476 1.74-10.979 6.664l.592-.54a143.139 143.139 0 0 0 54.758 2.525L88.9 36.127Z" class="Vector"/>
    <path fill="#FF6582" d="M100.068 46.636c11.439 0 20.712-9.259 20.712-20.68 0-11.422-9.273-20.681-20.712-20.681s-20.712 9.259-20.712 20.68c0 11.422 9.273 20.681 20.712 20.681Z" class="Vector"/>
    <path fill="#F0F0F0" d="M148.549 22.005c-2.568-1.81-5.378-3.698-8.521-3.623-7.607.183-11.708 11.318-19.307 10.926-4.847-.25-8.064-5.165-12.576-6.948-5.874-2.32-13.35 2.218-13.991 8.493l.754-.69a182.415 182.415 0 0 0 69.784 3.22l-16.143-11.378Z" class="Vector"/>
    <path fill="#CCC" d="m334.853 229.609-21.98-117.512a8.703 8.703 0 0 0-2.904-4.969 8.727 8.727 0 0 0-5.908-2.074l-14.973.536-1.611.059-7.473.268-1.612.056-4.806.173-96.926 3.475a5.43 5.43 0 0 1-.442.004l-21.719-.454-8.038-.166-.256-.004-5.933-.126-51.693-1.072-13.706-.288-6.758-.138-1.619-.036-7.706-.158-1.615-.035-7.884-.162-1.615-.035-8.662-.182-1.358-.027-7.726-.162-1.22-.024h-.178a8.708 8.708 0 0 0-5.596 2.067 8.68 8.68 0 0 0-2.943 5.182L.114 235.745a8.62 8.62 0 0 0 1.946 6.983 8.638 8.638 0 0 0 6.59 3.042h114.16a7.918 7.918 0 0 1 4.668 1.538l2.165 1.601a8.738 8.738 0 0 0 5.146 1.696h67.279a8.596 8.596 0 0 0 6.118-2.532 7.85 7.85 0 0 1 5.134-2.283l113.482-5.971a8.649 8.649 0 0 0 7.947-6.562 8.632 8.632 0 0 0 .103-3.648Z" class="Vector"/>
    <path fill="#E6E6E6" d="m316.866 226.414-12.252-121.202a2.066 2.066 0 0 0-.02-.158 7.69 7.69 0 0 0-2.677-4.973L275.56 78.158a6.996 6.996 0 0 0-4.064-1.621c-12.058-.773-73.361-3.636-95.989 15.976a6.23 6.23 0 0 1-5.063 1.451 6.35 6.35 0 0 1-4.392-2.942 25.934 25.934 0 0 0-7.406-7.54 39.341 39.341 0 0 0-4.147-2.513 50.608 50.608 0 0 0-4.147-1.936 61.989 61.989 0 0 0-4.147-1.546c-7.659-2.555-17.896-4.464-31.578-5.103-5.676-.268-11.845-.304-18.334-.11-5.925.173-12.22.532-18.71 1.068l-.095.004-43.908 26.766a7.64 7.64 0 0 0-3.56 5.664l-.09.804-13.942 124.389a7.79 7.79 0 0 0 1.797 5.92 7.17 7.17 0 0 0 5.446 2.539h108.19a6.38 6.38 0 0 1 3.954 1.4l4.723 3.779a7.151 7.151 0 0 0 4.333 1.569l47.57.777h.115a7.105 7.105 0 0 0 3.432-.891l9.175-5.088a6.335 6.335 0 0 1 2.725-.788l102.534-5.407a7.121 7.121 0 0 0 5.17-2.642 7.723 7.723 0 0 0 1.714-5.723Z" class="Vector"/>
    <path fill="#fff" d="m281.077 204.556-1.436-18.864-6.054-79.544-.9-11.767a12.464 12.464 0 0 0-3.849-8.121 12.5 12.5 0 0 0-8.318-3.43c-22.185-.568-62.359.433-82.072 13.622a10.944 10.944 0 0 1-14.303-1.763 31.761 31.761 0 0 0-9.649-7.195 54.437 54.437 0 0 0-8.293-3.333c-8.344-2.662-18.874-4.279-31.589-4.851l-30.177-.176h-.052a8.233 8.233 0 0 0-5.625 2.227 8.209 8.209 0 0 0-2.577 5.468l-1.31 20.684-5.724 90.713a12.486 12.486 0 0 0 7.402 12.207 12.521 12.521 0 0 0 4.918 1.079c50.654.751 72.783 11.426 82.431 20.241a12.523 12.523 0 0 0 15.322 1.24c17.515-11.454 46.633-14.639 69.81-15.134a343.717 343.717 0 0 1 19.115.142 12.514 12.514 0 0 0 9.478-3.833 12.485 12.485 0 0 0 3.452-9.612ZM29.61 230.868a.786.786 0 0 1-.361-.086.8.8 0 0 1-.444-.777l8.715-122.876a.8.8 0 0 1 .548-.71.793.793 0 0 1 .313-.036.802.802 0 0 1 .748.859l-8.715 122.877a.804.804 0 0 1-.804.749Zm10.488-4.834-.057-.002a.823.823 0 0 1-.553-.275.81.81 0 0 1-.195-.585l8.715-122.876a.796.796 0 0 1 .861-.747.823.823 0 0 1 .553.275.81.81 0 0 1 .195.585l-8.715 122.876a.804.804 0 0 1-.804.749Zm9.682-2.416a.786.786 0 0 1-.361-.086.8.8 0 0 1-.445-.777L57.69 99.879a.794.794 0 0 1 .86-.747.808.808 0 0 1 .748.86L50.584 222.87a.804.804 0 0 1-.803.749Zm9.68-4.834-.057-.002a.823.823 0 0 1-.552-.275.81.81 0 0 1-.195-.585L67.37 95.046a.794.794 0 0 1 .861-.747.805.805 0 0 1 .748.86l-8.716 122.876a.806.806 0 0 1-.803.749Zm247.679 12.889.058-.002a.814.814 0 0 0 .552-.275.806.806 0 0 0 .196-.585l-8.716-122.876a.789.789 0 0 0-.547-.71.814.814 0 0 0-.866.238.806.806 0 0 0-.196.585l8.716 122.876a.804.804 0 0 0 .803.749Zm-10.488-7.25.058-.002a.814.814 0 0 0 .552-.275.809.809 0 0 0 .196-.585l-8.716-122.876a.789.789 0 0 0-.547-.71.797.797 0 0 0-.314-.037.796.796 0 0 0-.552.275.804.804 0 0 0-.196.585l8.716 122.876a.806.806 0 0 0 .803.749Zm-9.681-8.055a.788.788 0 0 0 .361-.086.804.804 0 0 0 .444-.777L279.06 92.629a.79.79 0 0 0-.273-.554.805.805 0 0 0-.892-.11.81.81 0 0 0-.405.465.823.823 0 0 0-.039.312l8.715 122.877a.808.808 0 0 0 .804.749Z" class="Vector"/>
    <path fill="#3F3D56" d="M88.98 106.891c18.185-5.793 38.473-4.259 55.701 3.902a73.376 73.376 0 0 1 13.842 8.513c1.212.95 2.936-.749 1.711-1.709a79.36 79.36 0 0 0-55.651-16.295 76.263 76.263 0 0 0-16.247 3.259c-1.478.471-.847 2.805.643 2.33Zm100.067 13.353c16.908-8.874 37.155-10.809 55.538-5.772a73.273 73.273 0 0 1 15.101 5.995c1.374.732 2.598-1.353 1.221-2.087-17.52-9.334-38.552-11.483-57.685-6.28a76.202 76.202 0 0 0-15.396 6.057c-1.379.724-.158 2.81 1.221 2.087Zm0 16.111c16.908-8.874 37.155-10.809 55.538-5.772a73.33 73.33 0 0 1 15.101 5.995c1.374.732 2.598-1.353 1.221-2.086-17.52-9.335-38.552-11.484-57.685-6.28a76.2 76.2 0 0 0-15.396 6.056c-1.379.724-.158 2.81 1.221 2.087Zm72.453 15.247a1.043 1.043 0 0 0-.597-1.002 79.475 79.475 0 0 0-45.694-8.546c-.098.008-.189.024-.296.031h-.004a2.534 2.534 0 0 0-.288.044 76.552 76.552 0 0 0-26.795 8.246 1.222 1.222 0 0 0-.596 1.049v30.055a1.216 1.216 0 0 0 .483.953 1.235 1.235 0 0 0 1.049.207c.372-.107.743-.209 1.122-.308a120.144 120.144 0 0 1 25.831-4.034l.565-.024a135.543 135.543 0 0 1 21.308.765c.148.009.296.024.443.047.363.04.734.083 1.098.131.146.015.284.031.418.055 1.414.177 2.816.378 4.222.595 2.031.324 4.061.684 6.091 1.081.126.024.257.055.387.079 3.258.647 6.501 1.396 9.728 2.224a1.234 1.234 0 0 0 1.401-.634c.084-.166.129-.348.131-.533v-30.434a.095.095 0 0 0-.007-.047Z" class="Vector"/>
    <path fill="#FF6582" d="M217.107 143.693a3.983 3.983 0 0 0-2.852-.25 3.369 3.369 0 0 0-1.9 1.783 8.612 8.612 0 0 0-.625 2.454c-.05.332-.053.751.281.906a.71.71 0 0 0 .719-.142c.172-.17.315-.368.42-.586a6.39 6.39 0 0 1 5.397-2.929l.893.355a10.601 10.601 0 0 0-2.333-1.591Z" class="Vector"/>
    <path fill="#fff" d="M226.778 150.62c-.694-1.019-1.515-2.108-2.802-2.44-1.49-.386-3.021.38-4.32 1.135a126.4 126.4 0 0 0-11.202 7.336l.004.039 8.359-.512c2.013-.123 4.096-.264 5.875-1.11a5.532 5.532 0 0 1 2.098-.78 3.504 3.504 0 0 1 2.43 1.169c3.853 3.646 4.967 9.221 9.289 12.425a117.095 117.095 0 0 0-9.731-17.262Zm-10.497 27.653a358.8 358.8 0 0 0-.565.024 50.35 50.35 0 0 0-4.122-1.281 45.506 45.506 0 0 0-2.743-.645 46.866 46.866 0 0 0-3.139-.555 50.23 50.23 0 0 0-6.026-.508.12.12 0 0 1-.046-.004.118.118 0 0 1-.039-.023.098.098 0 0 1-.027-.037.113.113 0 0 1 0-.089.098.098 0 0 1 .027-.037.118.118 0 0 1 .039-.023c.015-.004.031-.006.046-.004.258 0 .516.008.766.024 2.022.074 4.037.271 6.035.588 1.041.169 2.081.37 3.114.596.936.209 1.872.443 2.792.701 1.315.37 2.611.795 3.888 1.273Zm23.268.998a6.76 6.76 0 0 0-.42-.056 34.682 34.682 0 0 0-1.71-1.321 32.512 32.512 0 0 0-2.267-1.498 40.29 40.29 0 0 0-5.357-2.723 53.528 53.528 0 0 0-9.052-2.852 90.227 90.227 0 0 0-10.706-1.675c-3.599-.371-7.213-.597-10.827-.822-.153-.008-.162-.234 0-.226.452.033.903.057 1.363.089 3.655.225 7.31.483 10.94.894a83.39 83.39 0 0 1 10.69 1.853 52.051 52.051 0 0 1 8.762 3.005 39.995 39.995 0 0 1 4.711 2.505c.96.604 1.888 1.249 2.775 1.933.372.29.743.58 1.098.894Z" class="Vector"/>
    <path fill="#fff" d="M238.032 179.086a4.397 4.397 0 0 0-.444-.048c-.169-.137-.347-.266-.524-.395a36.93 36.93 0 0 0-3.881-2.425 41.21 41.21 0 0 0-3.751-1.796 52.759 52.759 0 0 0-9.052-2.852 90.227 90.227 0 0 0-10.706-1.675c-3.599-.371-7.213-.596-10.827-.822-.153-.016-.153-.234 0-.225.46.032.911.056 1.363.088 3.655.226 7.31.483 10.94.894 3.6.386 7.171 1.004 10.69 1.853a51.803 51.803 0 0 1 8.761 3.005 40.403 40.403 0 0 1 3.123 1.579 33.094 33.094 0 0 1 4.308 2.819Z" class="Vector"/>
    <path fill="#fff" d="M250.246 181.028c-.129-.025-.258-.057-.387-.081a11.845 11.845 0 0 1-.419-.475c-.694-.798-1.38-1.603-2.058-2.417a158.96 158.96 0 0 1-7.591-9.779 154.177 154.177 0 0 1-5.833-8.725 139.174 139.174 0 0 1-2.558-4.253 162.044 162.044 0 0 1-1.888-3.343 56.738 56.738 0 0 1-.516-.967c-.395-.757-.791-1.522-1.21-2.271a6.415 6.415 0 0 0-1.953-2.32 2.85 2.85 0 0 0-1.387-.476 4.2 4.2 0 0 0-2.001.516 65.236 65.236 0 0 0-12.691 7.773 61.309 61.309 0 0 0-10.31 10.175c-.097.113-.307.008-.218-.113.363-.451.734-.902 1.105-1.345a61.795 61.795 0 0 1 9.754-9.256c.008-.008.024-.016.032-.024.315-.25.63-.492.952-.725a65.769 65.769 0 0 1 6.229-4.06 60.51 60.51 0 0 1 3.364-1.813c.282-.145.573-.29.863-.427.291-.145.581-.282.871-.419a4.751 4.751 0 0 1 1.848-.507c2.243-.032 3.397 2.223 4.195 3.746.25.475.509.95.759 1.425a145.115 145.115 0 0 0 3.025 5.349 132.571 132.571 0 0 0 1.969 3.263 146.75 146.75 0 0 0 2.969 4.576v.003l.002.002.003.002.003.001a144.857 144.857 0 0 0 3.695 5.292 166.84 166.84 0 0 0 6.873 8.765c.823.982 1.66 1.952 2.509 2.908Z" class="Vector"/>
    <path fill="#fff" d="M261.509 177.475v.371c-.799-.935-1.614-1.861-2.42-2.788l-1.017-1.16a734.248 734.248 0 0 0-4.332-4.865c-1.461-1.611-2.921-3.222-4.397-4.826-.355-.386-.71-.773-1.073-1.159a8.39 8.39 0 0 0-.944-.903 3.498 3.498 0 0 0-1.154-.636 2.894 2.894 0 0 0-1.484-.016c-.557.129-1.089.33-1.63.499-.557.185-1.105.363-1.662.54-1.113.362-2.219.725-3.332 1.087a.107.107 0 0 1-.043.009.123.123 0 0 1-.043-.01.104.104 0 0 1-.036-.026.1.1 0 0 1-.023-.037.114.114 0 0 1-.009-.048.115.115 0 0 1 .013-.048.126.126 0 0 1 .032-.037.102.102 0 0 1 .045-.02c.274-.089.556-.177.839-.266 1.121-.37 2.234-.733 3.356-1.095.556-.186 1.113-.363 1.67-.54a4.973 4.973 0 0 1 1.613-.322c.902.064 1.747.46 2.372 1.111.347.323.662.661.976 1.007l1.114 1.209a635.48 635.48 0 0 1 8.834 9.835l.315.363c.815.918 1.613 1.845 2.42 2.771Z" class="Vector"/>
    <path fill="#FF6582" d="m221.463 145.45-.223.098a6.089 6.089 0 0 0-4.919-2.974c-3.303-.234-6.205 1.964-6.468 4.899a4.84 4.84 0 0 0 .982 3.377l-.207.122a5.041 5.041 0 0 1-1.023-3.517c.274-3.056 3.296-5.345 6.736-5.101a6.333 6.333 0 0 1 5.122 3.096Z" class="Vector"/>
    <path fill="#fff" d="M205.142 151.389a5.97 5.97 0 0 0-5.425.345 85.705 85.705 0 0 1 8.803 1.826c-1.2-.625-2.14-1.605-3.378-2.171Zm-5.442.342-.326.236c.11-.082.225-.16.343-.233l-.017-.003Zm47.501 11.898a2.725 2.725 0 0 0-1.175-.871l-.459.016a48.395 48.395 0 0 0 13.858 14.08l-12.224-13.225Z" class="Vector"/>
    <path fill="#fff" d="m209.531 153.099-.391-.387a11.327 11.327 0 0 0-3.559-2.6 5.701 5.701 0 0 0-2.163-.446 6.82 6.82 0 0 0-2.246.436c-.338.12-.669.256-.995.401a50.248 50.248 0 0 0-3.124 1.575 49.094 49.094 0 0 0-3.847 2.348 46.395 46.395 0 0 0-3.575 2.672c-.118.096-.294-.06-.176-.156a46.721 46.721 0 0 1 1.702-1.337 46.877 46.877 0 0 1 2.4-1.687 49.443 49.443 0 0 1 6.031-3.391c.211-.1.425-.198.641-.291a11.01 11.01 0 0 1 1.525-.551 6.056 6.056 0 0 1 2.304-.201 6.501 6.501 0 0 1 2.125.653 13.965 13.965 0 0 1 3.524 2.805c.106.106-.069.263-.176.157Z" class="Vector"/>
    <path fill="#3F3D56" d="M88.98 123.003c18.185-5.794 38.473-4.26 55.701 3.902a73.32 73.32 0 0 1 13.842 8.512c1.212.95 2.936-.749 1.711-1.709a79.366 79.366 0 0 0-55.651-16.295 76.263 76.263 0 0 0-16.247 3.259c-1.478.471-.847 2.805.643 2.331Zm0 16.111c18.185-5.793 38.473-4.26 55.701 3.902a73.371 73.371 0 0 1 13.842 8.512c1.212.95 2.936-.749 1.711-1.708a79.362 79.362 0 0 0-55.651-16.296 76.263 76.263 0 0 0-16.247 3.259c-1.478.471-.847 2.805.643 2.331Zm0 16.111c18.185-5.793 38.473-4.259 55.701 3.902a73.376 73.376 0 0 1 13.842 8.513c1.212.949 2.936-.749 1.711-1.709a79.357 79.357 0 0 0-55.651-16.295 76.202 76.202 0 0 0-16.247 3.259c-1.478.471-.847 2.805.643 2.33Zm0 16.111c18.185-5.793 38.473-4.259 55.701 3.902a73.376 73.376 0 0 1 13.842 8.513c1.212.949 2.936-.749 1.711-1.709a79.361 79.361 0 0 0-55.651-16.295 76.263 76.263 0 0 0-16.247 3.259c-1.478.471-.847 2.805.643 2.33Zm0 16.112c18.185-5.794 38.473-4.26 55.701 3.902a73.32 73.32 0 0 1 13.842 8.512c1.212.95 2.936-.749 1.711-1.709a79.361 79.361 0 0 0-55.651-16.295 76.263 76.263 0 0 0-16.247 3.259c-1.478.471-.847 2.805.643 2.331Z" class="Vector"/>
    <path fill="#9575CD" d="M154.499 80.97v45.155c0 .769-1.343 1.412-3.156 1.586-.316.031-.648.047-.991.047a8.284 8.284 0 0 1-2.931-.477 3.769 3.769 0 0 1-.505-.241c-.451-.264-.711-.576-.711-.915V77.487a61.988 61.988 0 0 1 4.147 1.546 50.608 50.608 0 0 1 4.147 1.936Z" class="Vector"/>
    <path fill="#E6E6E6" d="M171.882 96.453h-1.185V242.52h1.185V96.453Z" class="Vector"/>
    <path fill="#F2F2F2" d="M277.631 214.162a12.551 12.551 0 0 1-9.484 3.839 343.717 343.717 0 0 0-19.115-.142l-.04-.034 30.758-39.811 1.327 26.542a12.505 12.505 0 0 1-3.446 9.606Z" class="Vector"/>
  </g>
  <defs>
    <clipPath id="a" class="a">
      <path fill="#fff" d="M0 0h335v251H0z"/>
    </clipPath>
  </defs>
</svg>
