<svg xmlns="http://www.w3.org/2000/svg" width="30" height="30" fill="none" viewBox="0 0 30 30">
  <g class="user">
    <path fill="#DDD" d="M25.077 23.372A13.115 13.115 0 1 0 1.875 15a13.03 13.03 0 0 0 3.048 8.372l-.019.016c.066.079.14.146.208.224.085.096.175.187.263.281.262.285.532.559.815.816.087.079.176.152.263.227.3.258.608.504.928.733.041.028.079.064.12.093v-.01a13.032 13.032 0 0 0 15 0v.01c.041-.029.078-.065.12-.093.319-.23.628-.475.928-.733.087-.075.176-.15.263-.227.283-.258.553-.53.815-.816.087-.094.177-.185.263-.281.066-.078.142-.145.208-.225l-.02-.015ZM15 7.5a4.219 4.219 0 1 1 0 8.437A4.219 4.219 0 0 1 15 7.5ZM7.507 23.372a4.684 4.684 0 0 1 4.68-4.622h5.626a4.683 4.683 0 0 1 4.68 4.622 11.194 11.194 0 0 1-14.986 0Z" class="Vector"/>
  </g>
</svg>
