<svg xmlns="http://www.w3.org/2000/svg" width="24" height="24" fill="none" viewBox="0 0 24 24">
  <g class="dashicons:admin-site" clip-path="url(#a)">
    <path fill="#fff" d="M12 0a12 12 0 1 0 0 24 12 12 0 0 0 0-24Zm4.613 15.933c0 1.96-1.066 4.4-5.413 6.267.4-5.56-3.36-4.92-4.267-6.667a4.333 4.333 0 0 1 2.4-3.4A11.32 11.32 0 0 1 3.76 9.467a2.46 2.46 0 0 0 .853 1.613 5.574 5.574 0 0 1-2.586-2 10.587 10.587 0 0 1 9.666-7.507c-1.12 1.84-2 5.507 0 7.427-2.053.333-3.346-2.333-4.48-1.28-1.506 1.413.44 3.347 4.56 4.107 4.387.786 4.88 2.106 4.84 4.106ZM18.4 10.6c-.427-1.48.827-2.973 2.253-4.187a9.693 9.693 0 0 1 1.12 8.907c-1.026-2.52-2.893-3.093-3.373-4.76v.04Z" class="Vector"/>
  </g>
  <defs>
    <clipPath id="a" class="a">
      <path fill="#fff" d="M0 0h24v24H0z"/>
    </clipPath>
  </defs>
</svg>
